<svg width="158" height="150" viewBox="0 0 158 150" fill="none" xmlns="http://www.w3.org/2000/svg">
<path d="M74 5C74.99 5.33 75.98 5.66 77 6C75.9562 11.9645 72.5413 15.3376 67.8237 18.8125C62.9561 21.982 57.6637 24.5075 52.4519 27.0554C47.4524 29.5331 43.6542 31.759 40 36C39.67 36.33 39.34 36.66 39 37C38.913 38.6347 38.893 40.2731 38.9023 41.9102C38.9072 43.3942 38.9072 43.3942 38.9121 44.9082C38.9205 45.9491 38.9289 46.99 38.9375 48.0625C38.942 49.1073 38.9465 50.1521 38.9512 51.2285C38.963 53.8191 38.9795 56.4095 39 59C39.0258 58.0822 39.0516 57.1644 39.0781 56.2188C39.4946 47.2086 40.3594 41.1196 46.375 34.3125C47.2412 33.5494 48.1075 32.7862 49 32C50.2549 30.7838 50.2549 30.7838 51.5352 29.543C55.5519 26.2114 60.0831 25.2442 65.0625 24C66.9373 23.4964 68.811 22.9886 70.6836 22.4766C71.5909 22.2294 72.4983 21.9822 73.4331 21.7275C84.157 19.0576 84.157 19.0576 92 12C92.99 12.33 93.98 12.66 95 13C94.6007 31.1864 89.3668 50.1126 76 63C70.2524 68.1001 65.252 70.7016 57.4375 71.25C54 71 54 71 50.875 69.9375C47.6318 68.8799 46.1817 68.8278 43 70C40.6877 71.363 40.6877 71.363 39 74C38.4003 77.4342 38.4637 80.8341 38.5039 84.3125C38.5025 85.3184 38.501 86.3242 38.4995 87.3606C38.5012 89.4855 38.5127 91.6105 38.5334 93.7354C38.5624 96.9881 38.5541 100.239 38.541 103.492C38.5473 105.557 38.5556 107.622 38.5664 109.688C38.5635 110.661 38.5605 111.634 38.5575 112.636C38.5702 113.544 38.5829 114.451 38.5959 115.387C38.6014 116.183 38.6068 116.979 38.6123 117.8C38.8516 120.135 38.8516 120.135 40.5878 122.101C41.2868 123.041 41.2868 123.041 42 124C41.67 124.99 41.34 125.98 41 127C31.1 127 21.2 127 11 127C11 125.68 11 124.36 11 123C11.8117 122.617 12.6233 122.234 13.4596 121.839C16.1261 120.32 16.1261 120.32 16.4755 118.158C16.6534 115.62 16.6751 113.12 16.647 110.575C16.6601 109.126 16.6601 109.126 16.6735 107.647C16.6956 104.445 16.6809 101.245 16.6641 98.043C16.6674 95.8196 16.6723 93.5962 16.6786 91.3729C16.6859 86.708 16.6752 82.0435 16.6519 77.3787C16.6234 71.4029 16.6397 65.4282 16.6697 59.4525C16.6878 54.8585 16.682 50.2647 16.6691 45.6706C16.6657 43.4679 16.6698 41.265 16.6815 39.0623C16.6942 35.9786 16.6748 32.8968 16.647 29.8132C16.6571 28.9044 16.6672 27.9957 16.6776 27.0593C16.575 20.9065 15.2952 18.3862 11 14C11 13.34 11 12.68 11 12C13.2762 10.8619 14.4756 10.8895 16.9998 10.9182C18.2376 10.928 18.2376 10.928 19.5005 10.938C20.3962 10.9494 21.292 10.9609 22.2148 10.9727C24.1178 10.9853 26.0208 10.9977 27.9238 11.0098C30.9188 11.0344 33.9136 11.0622 36.9084 11.0959C56.2552 11.6454 56.2552 11.6454 74 5Z" fill="#1A365D"/>
<path d="M43 71C56.0031 71.5533 66.6885 76.5034 75.8516 85.8984C76.8371 87.0558 77.8024 88.2309 78.7422 89.4258C80.1153 91.2177 80.1153 91.2177 82.5 93.375C85.1594 96.1674 87.1084 99.0441 89.1992 102.27C92.958 107.969 96.9579 113.499 101 119C101.559 119.763 102.119 120.526 102.695 121.312C106.708 126.4 111.109 129.434 117.605 130.379C128.54 130.857 135.887 126.617 143.969 119.609C146 118 146 118 148 118C148 117.34 148 116.68 148 116C149.32 116 150.64 116 152 116C151.844 123.181 148.312 127.473 144 133C143.473 133.728 142.946 134.457 142.402 135.207C137.465 141.552 130.973 146.171 122.857 147.297C111.484 148.171 100.202 147.361 91 140C83.2721 133.364 79.4565 125.264 75.4619 116.045C71.1787 106.166 66.5626 97.5351 60 89C59.4444 88.2021 58.8888 87.4041 58.3164 86.582C53.9495 80.355 48.8465 77.2602 42 74C42.33 73.01 42.66 72.02 43 71Z" fill="#1A365D"/>
</svg>
