<svg width="141" height="143" viewBox="0 0 141 143" fill="none" xmlns="http://www.w3.org/2000/svg">
<path d="M63 0C63.99 0.33 64.98 0.66 66 1C64.9562 6.96451 61.5413 10.3376 56.8237 13.8125C51.9561 16.982 46.6637 19.5075 41.4519 22.0554C36.4524 24.5331 32.6542 26.759 29 31C28.67 31.33 28.34 31.66 28 32C27.913 33.6347 27.893 35.2731 27.9023 36.9102C27.9072 38.3942 27.9072 38.3942 27.9121 39.9082C27.9205 40.9491 27.9289 41.99 27.9375 43.0625C27.942 44.1073 27.9465 45.1521 27.9512 46.2285C27.963 48.8191 27.9795 51.4095 28 54C28.0258 53.0822 28.0516 52.1644 28.0781 51.2188C28.4946 42.2086 29.3594 36.1196 35.375 29.3125C36.2412 28.5494 37.1075 27.7862 38 27C39.2549 25.7838 39.2549 25.7838 40.5352 24.543C44.5519 21.2114 49.0831 20.2442 54.0625 19C55.9373 18.4964 57.811 17.9886 59.6836 17.4766C60.5909 17.2294 61.4983 16.9822 62.4331 16.7275C73.157 14.0576 73.157 14.0576 81 7C81.99 7.33 82.98 7.66 84 8C83.6007 26.1864 78.3668 45.1126 65 58C59.2524 63.1001 54.252 65.7016 46.4375 66.25C43 66 43 66 39.875 64.9375C36.6318 63.8799 35.1817 63.8278 32 65C29.6877 66.363 29.6877 66.363 28 69C27.4003 72.4342 27.4637 75.8341 27.5039 79.3125C27.5025 80.3184 27.501 81.3242 27.4995 82.3606C27.5012 84.4855 27.5127 86.6105 27.5334 88.7354C27.5624 91.9881 27.5541 95.2393 27.541 98.4922C27.5473 100.557 27.5556 102.622 27.5664 104.688C27.5635 105.661 27.5605 106.634 27.5575 107.636C27.5702 108.544 27.5829 109.451 27.5959 110.387C27.6014 111.183 27.6068 111.979 27.6123 112.8C27.8516 115.135 27.8516 115.135 29.5878 117.101C30.2868 118.041 30.2868 118.041 31 119C30.67 119.99 30.34 120.98 30 122C20.1 122 10.2 122 0 122C0 120.68 0 119.36 0 118C0.811656 117.617 1.62331 117.234 2.45956 116.839C5.1261 115.32 5.1261 115.32 5.47548 113.158C5.65338 110.62 5.67513 108.12 5.64697 105.575C5.66012 104.126 5.66012 104.126 5.67352 102.647C5.69557 99.4453 5.68094 96.2448 5.66406 93.043C5.66743 90.8196 5.67228 88.5962 5.67856 86.3729C5.68594 81.708 5.67519 77.0435 5.65186 72.3787C5.62342 66.4029 5.63974 60.4282 5.66972 54.4525C5.68781 49.8585 5.68203 45.2647 5.66908 40.6706C5.66575 38.4679 5.66983 36.265 5.68148 34.0623C5.6942 30.9786 5.67478 27.8968 5.64697 24.8132C5.65709 23.9044 5.66721 22.9957 5.67764 22.0593C5.57502 15.9065 4.29517 13.3862 0 9C0 8.34 0 7.68 0 7C2.27624 5.86188 3.47559 5.88953 5.99976 5.91821C7.23761 5.92801 7.23761 5.92801 8.50047 5.938C9.39622 5.94944 10.292 5.96087 11.2148 5.97266C13.1178 5.98532 15.0208 5.99768 16.9238 6.00977C19.9188 6.03443 22.9136 6.06223 25.9084 6.09595C45.2552 6.64537 45.2552 6.64537 63 0Z" fill="#2D5AA0"/>
<path d="M32 66C45.0031 66.5533 55.6885 71.5034 64.8516 80.8984C65.8371 82.0558 66.8024 83.2309 67.7422 84.4258C69.1153 86.2177 69.1153 86.2177 71.5 88.375C74.1594 91.1674 76.1084 94.0441 78.1992 97.2695C81.958 102.969 85.9579 108.499 90 114C90.5595 114.763 91.1189 115.526 91.6953 116.312C95.7081 121.4 100.109 124.434 106.605 125.379C117.54 125.857 124.887 121.617 132.969 114.609C135 113 135 113 137 113C137 112.34 137 111.68 137 111C138.32 111 139.64 111 141 111C140.844 118.181 137.312 122.473 133 128C132.473 128.728 131.946 129.457 131.402 130.207C126.465 136.552 119.973 141.171 111.857 142.297C100.484 143.171 89.2017 142.361 80 135C72.2721 128.364 68.4565 120.264 64.4619 111.045C60.1787 101.166 55.5626 92.5351 49 84C48.4444 83.2021 47.8888 82.4041 47.3164 81.582C42.9495 75.355 37.8465 72.2602 31 69C31.33 68.01 31.66 67.02 32 66Z" fill="#2D5AA0"/>
</svg>
